Coordinates
version=1
nRows=5
nColumns=42
inDegrees=yes

Units are S.I. units (second, meters, Newtons, ...)
If the header above contains a line with 'inDegrees', this indicates whether rotational values are in degrees (yes) or radians (no).

endheader
time	pelvis_tilt	pelvis_list	pelvis_rotation	pelvis_tx	pelvis_ty	pelvis_tz	hip_flexion_r	hip_adduction_r	hip_rotation_r	knee_angle_r	knee_adduction_r	knee_angle_r_beta	ankle_angle_r	subtalar_angle_r	mtp_angle_r	hip_flexion_l	hip_adduction_l	hip_rotation_l	knee_angle_l	knee_adduction_l	knee_angle_l_beta	ankle_angle_l	subtalar_angle_l	mtp_angle_l	lumbar_extension	lumbar_bending	lumbar_rotation	arm_flex_r	arm_add_r	arm_rot_r	elbow_flex_r	pro_sup_r	wrist_flex_r	wrist_dev_r	arm_flex_l	arm_add_l	arm_rot_l	elbow_flex_l	pro_sup_l	wrist_flex_l	wrist_dev_l
      0.88000000	     13.62071540	     -1.33818953	      5.93924431	     -1.48358811	      0.89753720	      0.15075526	     -8.18096864	      2.21923967	    -26.51953965	     17.41715672	      2.27242307	      0.30398673	     19.14233420	     35.62670828	     -7.66857113	     -5.50335215	     -3.89244000	    -15.13313854	     52.74043187	    -14.08142323	      0.92049419	     21.14584235	     19.65589003	     -7.66857113	    -37.19983701	      6.07297005	     -0.09567635	      1.43942484	    -15.94831130	      6.73097704	     48.76414517	     90.00000001	      0.00000000	      0.00000000	     15.02029787	    -14.03595722	      8.95585446	     45.24745991	     90.00000001	      0.00000000	      0.00000000
      0.89000000	     13.53653445	     -1.09034964	      5.95074530	     -1.47162656	      0.89806543	      0.15117674	     -9.32111751	      2.11201184	    -25.95722235	     16.77483840	      2.64443390	      0.29277616	     19.62135794	     35.36430888	     -7.66563604	     -3.49402621	     -3.44806402	    -15.15785662	     52.63721486	    -14.09586692	      0.91869271	     21.88431277	     18.82380014	     -7.66563604	    -37.27814430	      5.76578786	      0.01609936	      1.85799722	    -16.28122616	      6.81582186	     49.22045873	     90.00000001	      0.00000000	      0.00000000	     14.39407870	    -14.02055852	      8.87880019	     45.02144605	     90.00000001	      0.00000000	      0.00000000
      0.90000000	     13.68598239	     -0.92166822	      5.74158763	     -1.45927449	      0.89871394	      0.15192536	    -10.79818343	      2.17612016	    -24.90884463	     15.86205198	      2.96597529	      0.27684503	     20.00602851	     34.94631520	     -7.65980738	     -1.98594920	     -3.14674419	    -15.16720471	     52.09691649	    -13.71207153	      0.90926272	     22.51682576	     17.58134098	     -7.65980738	    -37.55811971	      5.42580562	      0.36384686	      2.22272417	    -16.77120468	      7.21701316	     49.75028056	     90.00000001	      0.00000000	      0.00000000	     13.71883467	    -13.93493848	      8.58570763	     44.88655721	     90.00000001	      0.00000000	      0.00000000
      0.91000000	     13.77014513	     -0.79607075	      5.50151983	     -1.44694294	      0.89899176	      0.15265274	    -12.17731054	      2.24177540	    -23.81040088	     15.00720394	      3.30482938	      0.26192512	     20.42324062	     34.39723254	     -7.65449620	     -0.43896388	     -2.87046475	    -15.42588610	     51.29895481	    -13.49632858	      0.89533566	     23.07839821	     16.76951581	     -7.65449620	    -37.76062431	      5.11840968	      0.76025629	      2.60756421	    -17.21794883	      7.41542755	     50.20881172	     90.00000001	      0.00000000	      0.00000000	     13.00369774	    -13.86245751	      8.37022050	     44.77200714	     90.00000001	      0.00000000	      0.00000000
      0.92000000	     13.68809570	     -0.72494914	      5.30446441	     -1.43481718	      0.89874197	      0.15334319	    -13.25221456	      2.35706528	    -23.04953232	     14.36429922	      3.44494094	      0.25070432	     20.90543939	     33.98520800	     -7.65185397	      1.31808822	     -2.63833866	    -15.70003904	     50.36290477	    -13.30661449	      0.87899851	     23.58201140	     16.16697943	     -7.65185397	    -37.78959597	      4.86150718	      1.16027749	      3.00599345	    -17.61531106	      7.42511679	     50.57434492	     90.00000001	      0.00000000	      0.00000000	     12.30308089	    -13.81907988	      8.27180442	     44.65626586	     90.00000001	      0.00000000	      0.00000000
